<svg id="Layer_2" data-name="Layer 2" xmlns="http://www.w3.org/2000/svg" viewBox="0 0 287.81 291.07">
    <path d="M528.8,80.94l-16.34,21.48C495.65,91.2,482.13,87.5,469.54,87.5c-14.93,0-34.07,7-34.07,26.59S457,143.5,483.54,163.53c29.85,22.89,49.44,42,49.44,74.67,0,39.22-38.7,65.81-81.66,65.81-22,0-48.9-3.19-66.26-14.34-6,5.38-14.31,9.64-24.36,12.66a101.42,101.42,0,0,1-32.46,5.32c-2,0-4-.11-6-.21h-.14c-41.41,0-77-14.68-77-38.77s35.14-40.56,70.38-40.8c18.7-.14,36.57,3.19,50.64,9.06-4.15-21.72-25.7-32.63-45.43-46.87-26.59-19.15-49.92-35-49.92-66.74,0-36.89,36.4-60.22,77.47-60.22,22.86,0,40.77,9.09,55.14,19.39l-4.59,7.68-9.51,15.89c-16.78-11.22-30.33-15-42.92-15-14.93,0-34.08,7-34.08,26.63s21.48,29.37,48.08,49.44c29.88,22.89,49.47,42,49.47,74.67a56.2,56.2,0,0,1-3.43,19.38c13.69,7.55,30.78,12.94,43.92,12.94,19.6,0,39.67-10.3,39.67-33.15,0-27.07-24.26-38.74-46.19-54.59-26.59-19.15-49.92-35-49.92-66.74A51.32,51.32,0,0,1,401.88,92c12.9-20.45,40-32.53,69.51-32.53C494.28,59.46,516.65,68.83,528.8,80.94Zm-208,193.84c16.2,0,29.31-2.68,29.31-8.38s-14.76-9.71-31.12-9.64c-13.76.07-27.49,3.95-27.49,9.64S304.6,274.78,320.79,274.78Z"
          transform="translate(-245.17 -16.57)" style="fill:#E9EBF0"/>
    <polygon points="245.3 0 243.21 36.3 201.96 36.3 199.7 0.21 222.59 25.39 245.3 0" style="fill:#E9EBF0"/>
</svg>
