<svg xmlns="http://www.w3.org/2000/svg" viewBox="0 0 340 340" role="img">
  <rect x="0" y="1" width="27" height="27" fill="#65b294" />
  <rect x="64" y="1" width="27" height="27" fill="#65b294" />
  <rect x="284" y="2" width="53" height="53" fill="#c6755f" />
  <rect x="124" y="12" width="27" height="27" fill="#65b294" />
  <rect x="178" y="36" width="31" height="31" fill="#65b294" />
  <rect x="0" y="66" width="27" height="26" fill="#65b294" />
  <rect x="64" y="67" width="31" height="31" fill="#65b294" />
  <rect x="231" y="78" width="35" height="36" fill="#65b294" />
  <rect x="125" y="89" width="35" height="35" fill="#65b294" />
  <rect x="175" y="129" width="40" height="40" fill="#65b294" />
  <rect x="0" y="130" width="63" height="40" fill="#65b294" />
  <rect x="278" y="138" width="30" height="31" fill="#65b294" />
  <rect x="69" y="144" width="45" height="44" fill="#65b294" />
  <rect x="121" y="180" width="45" height="44" fill="#65b294" />
  <rect x="220" y="184" width="35" height="35" fill="#65b294" />
  <rect x="307" y="195" width="27" height="27" fill="#65b294" />
  <rect x="0" y="208" width="63" height="39" fill="#65b294" />
  <rect x="69" y="231" width="45" height="44" fill="#65b294" />
  <rect x="158" y="231" width="44" height="44" fill="#65b294" />
  <rect x="249" y="249" width="30" height="30" fill="#65b294" />
  <rect x="314" y="253" width="26" height="26" fill="#65b294" />
  <rect x="0" y="277" width="63" height="62" fill="#185032" />
  <rect x="100" y="282" width="40" height="57" fill="#65b294" />
  <rect x="178" y="282" width="39" height="57" fill="#65b294" />
  <rect x="253" y="313" width="26" height="26" fill="#65b294" />
  <rect x="314" y="313" width="26" height="26" fill="#65b294" />
</svg>
