<?xml version="1.0" standalone="no"?>
<!DOCTYPE svg PUBLIC "-//W3C//DTD SVG 20010904//EN"
 "http://www.w3.org/TR/2001/REC-SVG-20010904/DTD/svg10.dtd">
<svg version="1.0" xmlns="http://www.w3.org/2000/svg"
 width="582.000000pt" height="582.000000pt" viewBox="0 0 582.000000 582.000000"
 preserveAspectRatio="xMidYMid meet">
<metadata>
Created by potrace 1.11, written by Peter Selinger 2001-2013
</metadata>
<g transform="translate(0.000000,582.000000) scale(0.100000,-0.100000)"
fill="#000000" stroke="none">
<path d="M4930 5812 c0 -4 -19 -28 -42 -52 -24 -25 -72 -78 -108 -119 -36 -41
-70 -79 -76 -85 -5 -6 -52 -58 -103 -116 -51 -58 -99 -108 -106 -113 -15 -8
-15 -8 -109 96 -38 43 -78 88 -90 100 -12 13 -52 58 -91 101 -38 42 -94 103
-123 134 l-52 57 5 -85 c3 -47 7 -121 10 -165 3 -44 7 -114 10 -155 3 -41 8
-122 11 -179 3 -57 7 -111 9 -120 2 -14 40 -16 404 -17 220 0 405 3 411 6 9 5
13 55 25 270 2 52 7 129 10 170 12 189 16 280 11 280 -3 0 -6 -3 -6 -8z"/>
<path d="M4537 4964 c-1 -1 -51 -5 -112 -8 -60 -4 -121 -9 -135 -11 -14 -2
-41 -6 -60 -8 -65 -10 -194 -39 -212 -48 -9 -5 -21 -8 -25 -8 -4 1 -15 0 -23
-4 -8 -3 -44 -15 -80 -27 -114 -38 -313 -139 -389 -197 -139 -107 -207 -173
-285 -278 -57 -77 -139 -232 -151 -286 -4 -19 -10 -38 -13 -44 -7 -12 -9 -18
-17 -65 -4 -19 -10 -55 -15 -80 -5 -24 -7 -96 -5 -160 4 -159 13 -215 51 -330
23 -66 81 -197 94 -210 3 -3 26 -36 52 -75 83 -122 173 -215 358 -372 19 -16
78 -62 130 -101 52 -39 100 -75 105 -80 27 -21 341 -245 425 -302 52 -35 97
-68 98 -72 2 -4 8 -8 12 -8 12 0 163 -113 246 -185 177 -153 287 -323 332
-514 13 -56 7 -326 -7 -326 -2 0 -4 -11 -7 -24 -12 -67 -80 -179 -150 -246
-60 -59 -79 -73 -148 -110 -58 -32 -196 -88 -196 -79 0 2 -10 0 -23 -5 -95
-36 -402 -34 -525 3 -9 3 -30 8 -47 10 -113 20 -364 115 -522 199 l-31 17 15
47 c8 27 16 58 18 70 2 12 5 25 8 30 13 21 21 121 21 253 0 181 -11 253 -61
415 -27 85 -118 280 -143 305 -3 3 -24 32 -47 66 -62 90 -179 222 -282 318
-24 23 -54 50 -65 61 -12 11 -48 42 -81 69 -33 27 -64 54 -70 60 -5 6 -46 39
-90 74 -44 34 -87 67 -95 74 -8 7 -75 57 -150 111 -74 54 -143 105 -153 113
-9 7 -21 14 -25 14 -4 0 -18 10 -32 23 -14 12 -46 36 -72 52 -27 17 -48 33
-48 38 0 4 -5 7 -11 7 -11 0 -175 122 -194 145 -5 6 -18 16 -27 21 -30 16
-149 137 -188 189 -94 129 -127 277 -95 435 10 48 61 160 74 160 6 0 11 4 11
10 0 12 66 78 106 106 62 45 205 102 294 119 68 13 304 13 375 -1 115 -21 127
-24 204 -50 122 -41 253 -104 380 -182 l81 -51 132 222 c73 122 136 229 140
238 4 11 -3 21 -25 34 -18 10 -34 21 -37 24 -7 8 -82 57 -128 83 -197 112
-374 182 -562 222 -125 26 -158 29 -340 30 -154 1 -209 -2 -310 -18 -14 -2
-44 -7 -66 -10 -23 -3 -53 -10 -67 -15 -14 -5 -27 -8 -30 -5 -7 7 -264 -80
-342 -116 -280 -130 -494 -321 -613 -549 -39 -74 -85 -196 -96 -256 -3 -16 -8
-43 -12 -60 -12 -61 -11 -272 2 -350 49 -284 177 -496 451 -745 69 -62 200
-170 208 -170 3 0 16 -9 28 -21 12 -11 42 -35 67 -52 25 -17 51 -36 57 -43 7
-7 29 -22 50 -35 21 -13 47 -32 58 -42 11 -10 32 -25 47 -33 16 -8 28 -18 28
-23 0 -5 14 -14 30 -21 16 -7 30 -16 30 -19 0 -4 16 -15 35 -24 19 -9 35 -21
35 -27 0 -5 4 -10 10 -10 5 0 29 -14 52 -30 24 -17 68 -47 98 -68 30 -20 60
-40 65 -44 6 -5 28 -22 50 -38 22 -16 45 -33 50 -37 164 -124 306 -279 370
-402 39 -77 77 -201 60 -201 -6 0 -83 29 -110 41 -11 5 -29 11 -40 12 -11 2
-27 7 -35 10 -31 11 -89 28 -117 33 -15 3 -44 9 -63 14 -237 61 -647 81 -920
45 -19 -2 -52 -7 -74 -9 -21 -3 -46 -8 -55 -10 -9 -3 -29 -8 -46 -10 -16 -3
-45 -10 -63 -15 -18 -5 -36 -10 -40 -11 -47 -6 -224 -68 -322 -113 -63 -29
-210 -114 -220 -127 -3 -3 -15 -13 -28 -22 -35 -24 -104 -90 -137 -133 -16
-21 -35 -43 -41 -49 -17 -19 -75 -144 -82 -179 -8 -39 -8 -193 -1 -227 3 -14
11 -37 17 -52 7 -16 16 -39 22 -53 39 -102 196 -244 365 -332 53 -27 202 -91
230 -98 6 -1 17 -5 25 -8 14 -6 156 -44 190 -51 8 -2 33 -7 55 -11 22 -5 45
-9 50 -10 33 -8 133 -23 190 -30 173 -19 615 -27 740 -12 47 5 253 45 310 60
17 5 89 28 105 34 8 3 22 7 30 9 25 5 184 67 197 77 7 5 39 22 70 37 32 16 87
50 122 77 l64 48 112 -56 c109 -54 231 -99 365 -134 62 -16 79 -20 145 -30 17
-2 39 -6 50 -8 67 -15 192 -31 325 -43 114 -10 432 -11 520 -2 70 7 215 32
315 53 112 25 429 154 455 186 3 4 15 9 28 13 12 4 22 12 22 17 0 5 5 9 11 9
37 0 359 286 359 319 0 5 4 11 8 13 11 5 96 135 125 193 26 52 73 179 81 218
32 151 35 181 31 322 -2 83 -6 164 -10 180 -4 17 -8 39 -10 50 -2 16 -17 83
-29 130 -11 42 -69 180 -103 244 -119 224 -335 459 -658 716 -55 44 -102 82
-105 85 -6 7 -253 188 -300 220 -19 13 -36 28 -38 32 -2 4 -9 8 -16 8 -7 0
-21 8 -32 18 -10 9 -54 42 -97 72 -80 57 -162 118 -232 172 -135 107 -257 264
-292 376 -27 87 -21 293 9 313 6 3 9 9 8 13 -4 19 51 104 96 150 69 68 69 68
165 114 77 37 159 61 264 77 63 10 259 4 320 -9 114 -24 172 -40 180 -47 5 -5
17 -9 28 -9 10 0 52 -15 93 -34 41 -19 74 -32 74 -29 0 3 8 0 18 -8 9 -8 44
-28 77 -44 33 -17 62 -32 65 -35 10 -10 111 -70 119 -70 4 0 38 42 76 93 83
109 73 96 135 176 28 35 50 66 50 70 0 3 14 20 30 38 17 18 30 37 30 42 0 19
-149 142 -210 173 -14 7 -27 15 -30 18 -10 11 -190 99 -190 93 0 -3 -6 0 -14
6 -15 13 -247 90 -286 95 -14 2 -32 6 -40 9 -14 5 -43 10 -135 23 -55 7 -254
21 -258 18z m-2802 -3957 c17 -3 50 -9 75 -12 88 -14 181 -41 233 -67 45 -23
89 -69 93 -95 10 -69 -105 -133 -286 -158 -192 -26 -564 -19 -665 13 -11 3
-24 6 -30 6 -26 2 -122 39 -140 54 -40 33 -54 62 -44 94 22 78 161 139 374
163 33 4 61 8 63 10 5 4 296 -3 327 -8z"/>
</g>
</svg>
